<?xml version="1.0" encoding="UTF-8" standalone="no"?>
<!-- Created with Inkscape (http://www.inkscape.org/) -->

<svg
   width="323.48962mm"
   height="99.999664mm"
   viewBox="0 0 323.48963 99.999665"
   version="1.1"
   id="svg1"
   inkscape:version="1.3 (0e150ed6c4, 2023-07-21)"
   sodipodi:docname="logo.svg"
   xmlns:inkscape="http://www.inkscape.org/namespaces/inkscape"
   xmlns:sodipodi="http://sodipodi.sourceforge.net/DTD/sodipodi-0.dtd"
   xmlns="http://www.w3.org/2000/svg"
   xmlns:svg="http://www.w3.org/2000/svg">
  <sodipodi:namedview
     id="namedview1"
     pagecolor="#ffffff"
     bordercolor="#666666"
     borderopacity="1.0"
     inkscape:showpageshadow="2"
     inkscape:pageopacity="0.0"
     inkscape:pagecheckerboard="0"
     inkscape:deskcolor="#d1d1d1"
     inkscape:document-units="mm"
     inkscape:zoom="0.396875"
     inkscape:cx="474.96063"
     inkscape:cy="359.05512"
     inkscape:window-width="1920"
     inkscape:window-height="1137"
     inkscape:window-x="-8"
     inkscape:window-y="-8"
     inkscape:window-maximized="1"
     inkscape:current-layer="layer1"
     showgrid="false" />
  <defs
     id="defs1">
    <rect
       x="726.92914"
       y="70.551178"
       width="277.16537"
       height="187.71654"
       id="rect3" />
    <rect
       x="178.89764"
       y="294.80316"
       width="296.06299"
       height="217.95276"
       id="rect1" />
  </defs>
  <g
     inkscape:label="Layer 1"
     inkscape:groupmode="layer"
     id="layer1"
     transform="translate(-19.6665,-39.000203)">
    <text
       xml:space="preserve"
       transform="scale(0.26458333)"
       id="text1"
       style="font-size:14px;line-height:0.9;font-family:Roboto;-inkscape-font-specification:Roboto;letter-spacing:1px;white-space:pre;shape-inside:url(#rect1)" />
    <g
       id="g3"
       transform="matrix(0.64934888,0,0,0.64934888,6.8960803,13.675465)">
      <g
         id="g2"
         transform="translate(25.76258,41.833359)"
         style="fill:#000000">
        <path
           id="path1"
           style="fill:#000000;fill-rule:evenodd;stroke-width:1.55228;stroke-linecap:round;stroke-linejoin:round;stroke-dashoffset:16.9739;paint-order:markers stroke fill"
           d="M 54.999744,34.666618 A 39.5,39.5 0 0 0 15.499829,74.166532 39.5,39.5 0 0 0 54.999744,113.66645 39.5,39.5 0 0 0 94.500175,74.166532 39.5,39.5 0 0 0 54.999744,34.666618 Z m 0,15.000118 A 24.5,24.5 0 0 1 79.500057,74.166532 24.5,24.5 0 0 1 54.999744,98.666846 24.5,24.5 0 0 1 30.499947,74.166532 24.5,24.5 0 0 1 54.999744,49.666736 Z" />
        <circle
           style="fill:#000000;fill-rule:evenodd;stroke-width:0.294735;stroke-linecap:round;stroke-linejoin:round;stroke-dashoffset:16.9739;paint-order:markers stroke fill"
           id="path1-9-8"
           cx="107.10625"
           cy="42.166664"
           r="7.5" />
        <rect
           style="fill:#000000;fill-rule:evenodd;stroke-width:1.12398;stroke-linecap:round;stroke-linejoin:round;stroke-dashoffset:16.9739;paint-order:markers stroke fill"
           id="rect2"
           width="15.000001"
           height="60.666664"
           x="99.666664"
           y="53" />
        <rect
           style="fill:#000000;fill-rule:evenodd;stroke-width:1.28262;stroke-linecap:round;stroke-linejoin:round;stroke-dashoffset:16.9739;paint-order:markers stroke fill"
           id="rect2-8"
           width="15.000001"
           height="79"
           x="79.5"
           y="34.666664" />
      </g>
      <path
         id="rect3-0"
         style="fill-rule:evenodd;stroke-width:0.831662;stroke-linecap:round;stroke-linejoin:round;stroke-dashoffset:16.9739;paint-order:markers stroke fill"
         transform="rotate(90)"
         d="m 112.87113,-173.66666 15.16667,3.33333 -0.16667,23.57143 h -15 z"
         sodipodi:nodetypes="ccccc" />
      <path
         id="path2"
         style="fill:#000000;fill-rule:evenodd;stroke-width:1.56431;stroke-linecap:round;stroke-linejoin:round;stroke-dashoffset:16.9739;paint-order:markers stroke fill"
         d="M 96.666451,39.000203 A 77,77 0 0 0 19.6665,116.00015 a 77,77 0 0 0 76.999951,76.99996 77,77 0 0 0 77.000469,-76.99996 77,77 0 0 0 -0.077,-3.129 h -15.00425 a 62,62 0 0 1 0.0811,3.129 A 62,62 0 0 1 96.666451,177.99999 62,62 0 0 1 34.666618,116.00015 62,62 0 0 1 96.666451,53.999805 62,62 0 0 1 149.05137,82.870911 H 166.1697 A 77,77 0 0 0 96.666451,39.000203 Z" />
    </g>
    <path
       d="m 143.59427,61.509065 q -3.12369,-0.897902 -4.55275,-2.200492 -1.41641,-1.315236 -1.41641,-3.237505 0,-2.1752 1.73257,-3.591608 1.74522,-1.429055 4.52745,-1.429055 1.89697,0 3.37662,0.733497 1.49229,0.733498 2.30167,2.023441 0.82201,1.289944 0.82201,2.820171 h -2.44077 q 0,-1.669339 -1.06231,-2.617828 -1.0623,-0.961134 -2.99722,-0.961134 -1.79581,0 -2.80753,0.79673 -0.99907,0.784083 -0.99907,2.187845 0,1.12554 0.94849,1.909623 0.96113,0.771438 3.25015,1.416409 2.30167,0.644972 3.59161,1.429055 1.30259,0.771437 1.92227,1.808451 0.63233,1.037014 0.63233,2.440776 0,2.23843 -1.74523,3.591607 -1.74521,1.34053 -4.66656,1.34053 -1.89697,0 -3.54101,-0.720851 -1.64405,-0.733497 -2.54195,-1.998148 -0.88526,-1.264651 -0.88526,-2.870757 h 2.44077 q 0,1.669339 1.22672,2.64312 1.23936,0.961134 3.30073,0.961134 1.92227,0 2.94664,-0.784083 1.02437,-0.784084 1.02437,-2.137259 0,-1.353177 -0.94849,-2.086674 -0.94849,-0.746144 -3.43984,-1.466995 z m 23.47191,-8.207582 h -5.91857 v 16.415165 h -2.41549 V 53.301483 h -5.90591 v -1.998148 h 14.23997 z m 12.70973,11.609492 h -7.71437 l -1.73257,4.805673 h -2.50401 l 7.03147,-18.413313 h 2.12461 l 7.0441,18.413313 h -2.49136 z m -6.98087,-1.998147 h 6.26002 l -3.13633,-8.612271 z m 28.66964,6.80382 h -2.44079 l -9.26987,-14.18938 v 14.18938 h -2.44079 V 51.303335 h 2.44079 l 9.29517,14.252612 V 51.303335 h 2.41549 z m 5.12183,0 V 51.303335 h 5.19772 q 2.40283,0 4.24922,1.062306 1.84639,1.062306 2.84545,3.022516 1.01173,1.960207 1.02438,4.502155 v 1.176125 q 0,2.60518 -1.01172,4.565389 -0.99908,1.960209 -2.87076,3.009868 -1.85903,1.049661 -4.33775,1.074954 z m 2.42812,-16.415165 v 14.429663 h 2.5546 q 2.80752,0 4.36305,-1.745218 1.56817,-1.745218 1.56817,-4.970077 v -1.074953 q 0,-3.136333 -1.47965,-4.868905 -1.467,-1.745218 -4.17334,-1.77051 z m 25.26772,11.609492 h -7.71436 l -1.73257,4.805673 h -2.504 l 7.03144,-18.413313 h 2.12463 l 7.04409,18.413313 h -2.49135 z m -6.98087,-1.998147 h 6.26003 l -3.13634,-8.612271 z m 21.27143,-0.644972 h -4.32512 v 7.448792 h -2.44076 V 51.303335 h 6.09561 q 3.11105,0 4.78039,1.416408 1.68197,1.416409 1.68197,4.122762 0,1.719924 -0.93583,2.997222 -0.9232,1.277296 -2.57989,1.909622 l 4.3251,7.815541 v 0.151758 h -2.60518 z m -4.32512,-1.985502 h 3.73074 q 1.80844,0 2.87075,-0.935842 1.07495,-0.935841 1.07495,-2.504007 0,-1.707279 -1.02437,-2.617827 -1.01171,-0.910549 -2.93399,-0.923195 h -3.71808 z m 16.93369,9.434294 h -2.42814 V 51.303335 h 2.42814 z m 7.06939,-1.985502 h 10.53454 v 1.985502 h -13.40529 v -1.821097 l 10.09191,-14.594068 h -9.92751 v -1.998148 h 12.8362 v 1.783157 z m 24.90098,-6.525597 h -7.97995 v 6.525597 h 9.26989 v 1.985502 H 282.74376 V 51.303335 h 11.57156 v 1.998148 h -9.14342 v 5.918565 h 7.97995 z m 5.12182,8.511099 V 51.303335 h 5.19772 q 2.40284,0 4.24923,1.062306 1.84639,1.062306 2.84547,3.022516 1.01171,1.960207 1.02436,4.502155 v 1.176125 q 0,2.60518 -1.01173,4.565389 -0.99907,1.960209 -2.87076,3.009868 -1.85903,1.049661 -4.33774,1.074954 z m 2.42814,-16.415165 v 14.429663 h 2.55459 q 2.80752,0 4.36305,-1.745218 1.56816,-1.745218 1.56816,-4.970077 v -1.074953 q 0,-3.136333 -1.47965,-4.868905 -1.46698,-1.745218 -4.17334,-1.77051 z M 138.16891,98.206691 V 79.793382 h 5.19771 q 2.40284,0 4.24924,1.062307 1.84638,1.062307 2.84545,3.022513 1.01172,1.960213 1.02437,4.502155 v 1.176127 q 0,2.605182 -1.01172,4.565387 -0.99907,1.960215 -2.87076,3.009867 -1.85903,1.04967 -4.33775,1.074953 z m 2.42813,-16.415161 v 14.429662 h 2.55459 q 2.80752,0 4.36305,-1.745225 1.56817,-1.745216 1.56817,-4.970069 v -1.074954 q 0,-3.136332 -1.47965,-4.868901 -1.467,-1.745219 -4.17334,-1.770513 z m 25.77357,7.904063 h -7.97994 v 6.525599 h 9.26989 v 1.985499 H 155.96255 V 79.793382 h 11.57155 v 1.998148 h -9.14343 v 5.918568 h 7.97994 z m 15.27699,0.379398 h -7.72702 v 8.1317 h -2.42812 V 79.793382 h 11.40714 v 1.998148 h -8.97902 v 6.297959 h 7.72702 z m 7.57526,8.1317 h -2.42813 V 79.793382 h 2.42813 z m 19.39974,0 h -2.44078 l -9.26989,-14.189373 v 14.189373 h -2.44078 V 79.793382 h 2.44078 l 9.29519,14.252604 V 79.793382 h 2.41548 z m 7.72701,0 h -2.42813 V 79.793382 h 2.42813 z M 233.95354,81.79153 h -5.91857 v 16.415161 h -2.41548 V 81.79153 h -5.90591 v -1.998148 h 14.23996 z m 6.14621,16.415161 h -2.42813 V 79.793382 h 2.42813 z m 19.41239,-8.612272 q 0,2.706355 -0.91056,4.729788 -0.91054,2.010799 -2.57987,3.073114 -1.66934,1.062307 -3.89512,1.062307 -2.17521,0 -3.8572,-1.062307 -1.68198,-1.074952 -2.61782,-3.047814 -0.9232,-1.985501 -0.94849,-4.590675 v -1.327888 q 0,-2.655769 0.9232,-4.69185 0.92319,-2.036093 2.60518,-3.111042 1.69463,-1.0876 3.86982,-1.0876 2.21314,0 3.89513,1.074949 1.69463,1.062306 2.60517,3.098396 0.91056,2.023444 0.91056,4.717147 z m -2.41549,-1.188772 q 0,-3.275441 -1.31523,-5.020654 -1.31524,-1.757871 -3.68014,-1.757871 -2.30165,0 -3.62954,1.757871 -1.31524,1.745213 -1.35318,4.856256 v 1.35317 q 0,3.174282 1.32788,4.99538 1.34053,1.808446 3.68015,1.808446 2.35224,0 3.64219,-1.707278 1.28993,-1.719926 1.32787,-4.919498 z m 21.0185,9.801044 h -2.44078 l -9.26989,-14.189373 v 14.189373 h -2.44077 V 79.793382 h 2.44077 l 9.29519,14.252604 V 79.793382 h 2.41548 z m 26.50707,-8.612272 q 0,2.706355 -0.91055,4.729788 -0.91054,2.010799 -2.57988,3.073114 -1.66934,1.062307 -3.89513,1.062307 -2.1752,0 -3.85718,-1.062307 -1.68198,-1.074952 -2.61783,-3.047814 -0.92318,-1.985501 -0.94848,-4.590675 v -1.327888 q 0,-2.655769 0.92319,-4.69185 0.9232,-2.036093 2.60518,-3.111042 1.69464,-1.0876 3.86983,-1.0876 2.21314,0 3.89513,1.074949 1.69463,1.062306 2.60517,3.098396 0.91055,2.023444 0.91055,4.717147 z m -2.41548,-1.188772 q 0,-3.275441 -1.31524,-5.020654 -1.31523,-1.757871 -3.68013,-1.757871 -2.30167,0 -3.62955,1.757871 -1.31524,1.745213 -1.35317,4.856256 v 1.35317 q 0,3.174282 1.32788,4.99538 1.34053,1.808446 3.68013,1.808446 2.35226,0 3.64219,-1.707278 1.28995,-1.719926 1.32789,-4.919498 z m 17.0222,1.669344 h -7.72701 v 8.1317 h -2.42814 V 79.793382 h 11.40715 v 1.998148 h -8.97901 v 6.297959 h 7.72701 z M 148.33669,121.89108 h -7.71436 l -1.73257,4.80567 h -2.50401 l 7.03146,-18.41332 h 2.12461 l 7.04411,18.41332 h -2.49137 z m -6.98087,-1.99816 h 6.26004 l -3.13634,-8.61227 z m 17.12338,6.80383 h -2.42813 v -18.41332 h 2.42813 z m 26.06445,-2.41549 q -0.93584,1.34053 -2.61782,2.0108 -1.66935,0.65761 -3.89513,0.65761 -2.25109,0 -3.9963,-1.04966 -1.74522,-1.0623 -2.70636,-3.00987 -0.94848,-1.94756 -0.97376,-4.51479 v -1.60611 q 0,-4.1607 1.9349,-6.44972 1.94756,-2.28901 5.46329,-2.28901 2.8834,0 4.64127,1.47963 1.75787,1.46699 2.14991,4.17335 h -2.42813 q -0.68291,-3.65484 -4.3504,-3.65484 -2.44078,0 -3.70543,1.71993 -1.252,1.70727 -1.26465,4.95742 v 1.50494 q 0,3.09839 1.41641,4.93213 1.41641,1.8211 3.8319,1.8211 1.36582,0 2.39018,-0.30351 1.02438,-0.30352 1.69463,-1.02437 v -4.13541 h -4.26186 v -1.97285 h 6.67735 z m 19.02035,-6.19678 q 0,2.70635 -0.91055,4.72979 -0.91055,2.0108 -2.57989,3.0731 -1.66934,1.0623 -3.89512,1.0623 -2.17521,0 -3.85719,-1.0623 -1.68199,-1.07496 -2.61783,-3.04781 -0.9232,-1.9855 -0.94848,-4.59069 V 116.921 q 0,-2.65577 0.92319,-4.69185 0.92319,-2.0361 2.60518,-3.11105 1.69463,-1.08759 3.86983,-1.08759 2.21314,0 3.89513,1.07494 1.69463,1.06232 2.60518,3.0984 0.91055,2.02344 0.91055,4.71715 z m -2.41549,-1.18878 q 0,-3.27544 -1.31524,-5.02066 -1.31524,-1.75787 -3.68013,-1.75787 -2.30166,0 -3.62955,1.75787 -1.31523,1.74522 -1.35317,4.85626 v 1.35318 q 0,3.17427 1.32787,4.99536 1.34054,1.80846 3.68015,1.80846 2.35224,0 3.64219,-1.70728 1.28994,-1.71992 1.32788,-4.9195 z m 12.68444,6.57619 5.26095,-15.18846 h 2.65577 l -6.82912,18.41332 h -2.1499 l -6.81647,-18.41332 h 2.64313 z m 21.60024,-5.28625 h -7.97995 v 6.52561 h 9.26989 v 1.9855 h -11.69802 v -18.41332 h 11.57156 v 1.99815 h -9.14343 v 5.91857 h 7.97995 z m 11.87506,1.06231 h -4.3251 v 7.4488 h -2.44077 v -18.41332 h 6.09561 q 3.11104,0 4.78038,1.41642 1.68198,1.4164 1.68198,4.12275 0,1.71993 -0.93584,2.99723 -0.92319,1.27729 -2.57988,1.90962 l 4.3251,7.81554 v 0.15176 h -2.60518 z m -4.3251,-1.9855 h 3.73073 q 1.80844,0 2.87075,-0.93584 1.07496,-0.93584 1.07496,-2.50401 0,-1.70727 -1.02438,-2.61783 -1.01172,-0.91054 -2.93398,-0.92319 h -3.71808 z m 28.47994,9.4343 h -2.44078 l -9.26989,-14.18939 v 14.18939 h -2.44077 v -18.41332 h 2.44077 l 9.29519,14.25261 v -14.25261 h 2.41548 z m 15.51726,-4.80567 h -7.71437 l -1.73258,4.80567 h -2.504 l 7.03145,-18.41332 h 2.12462 l 7.04411,18.41332 h -2.49137 z m -6.98087,-1.99816 h 6.26001 l -3.13633,-8.61227 z m 28.66962,6.80383 h -2.44077 l -9.26989,-14.18939 v 14.18939 h -2.44078 v -18.41332 h 2.44078 l 9.29518,14.25261 v -14.25261 h 2.41548 z m 18.66625,-5.84269 q -0.34145,2.92134 -2.16255,4.5148 -1.80845,1.58081 -4.81833,1.58081 -3.26279,0 -5.23564,-2.3396 -1.96021,-2.3396 -1.96021,-6.26002 v -1.77051 q 0,-2.56725 0.91055,-4.51481 0.92319,-1.94756 2.60518,-2.98456 1.68198,-1.04966 3.89512,-1.04966 2.934,0 4.7045,1.64404 1.77051,1.6314 2.06138,4.52745 h -2.44077 q -0.31617,-2.20049 -1.37848,-3.18692 -1.04966,-0.98643 -2.94663,-0.98643 -2.32695,0 -3.65484,1.71993 -1.31524,1.71992 -1.31524,4.89419 v 1.78317 q 0,2.99722 1.25201,4.76773 1.25199,1.7705 3.50307,1.7705 2.02344,0 3.0984,-0.91054 1.0876,-0.92319 1.44171,-3.19957 z m 14.53083,-2.66842 h -7.97994 v 6.52561 h 9.26989 v 1.9855 h -11.69802 v -18.41332 h 11.57155 v 1.99815 h -9.14342 v 5.91857 h 7.97994 z"
       id="path4"
       style="font-size:32px;line-height:1.1;font-family:Roboto;-inkscape-font-specification:Roboto;letter-spacing:1px;white-space:pre;stroke-width:0.809375"
       aria-label="STANDARIZED&#10;DEFINITION OF&#10;AI GOVERNANCE" />
  </g>
</svg>
