<?xml version="1.0" encoding="UTF-8" standalone="no"?>
<!-- Created with Inkscape (http://www.inkscape.org/) -->

<svg
   width="60mm"
   height="60mm"
   viewBox="0 0 60 60"
   version="1.1"
   id="svg1"
   xmlns="http://www.w3.org/2000/svg"
   xmlns:svg="http://www.w3.org/2000/svg">
  <defs
     id="defs1" />
  <g
     id="layer1"
     transform="translate(-57.693885,-83.801931)">
    <g
       id="g2">
      <circle
         style="opacity:1;fill:#d40000;fill-opacity:1;fill-rule:evenodd;stroke-width:1.51417;stroke-linecap:round;stroke-linejoin:round;stroke-dashoffset:16.9739;paint-order:markers stroke fill"
         id="path1"
         cx="62.412979"
         cy="129.40524"
         r="30"
         transform="rotate(-11.86894)" />
      <path
         id="path2"
         style="opacity:1;fill:#f9f9f9;fill-rule:evenodd;stroke-width:1.25339;stroke-linecap:round;stroke-linejoin:round;stroke-dashoffset:16.9739;paint-order:markers stroke fill"
         d="m 107.75727,135.99654 a 30,30 0 0 0 0.21032,-0.185 30,30 0 0 0 1.05523,-1.02681 30,30 0 0 0 1.00356,-1.07745 30,30 0 0 0 0.94981,-1.125 30,30 0 0 0 0.89349,-1.17047 30,30 0 0 0 0.83457,-1.21336 30,30 0 0 0 0.77463,-1.25212 30,30 0 0 0 0.71159,-1.28933 30,30 0 0 0 0.64802,-1.32188 30,30 0 0 0 0.58187,-1.35289 30,30 0 0 0 0.51522,-1.37925 30,30 0 0 0 0.44648,-1.40301 30,30 0 0 0 0.37776,-1.42316 30,30 0 0 0 0.30696,-1.44023 30,30 0 0 0 0.23616,-1.45366 30,30 0 0 0 0.16433,-1.46295 30,30 0 0 0 0.0925,-1.46969 30,30 0 0 0 0.0202,-1.47226 30,30 0 0 0 -0.0522,-1.47174 30,30 0 0 0 -0.12402,-1.4671 30,30 0 0 0 -0.19586,-1.45934 30,30 0 0 0 -0.26768,-1.44797 30,30 0 0 0 -1.17667,-4.11551 30,30 0 0 0 -1.7508,-3.906223 30,30 0 0 0 -2.28875,-3.616831 30,30 0 0 0 -2.78019,-3.254588 30,30 0 0 0 -3.21479,-2.825665 30,30 0 0 0 -3.5848,-2.339392 30,30 0 0 0 -0.8294,-0.386023 24.833334,24.833334 0 0 0 -4.89893,0.469739 24.833334,24.833334 0 0 0 -19.195211,29.410083 24.833334,24.833334 0 0 0 29.410091,19.1947 24.833334,24.833334 0 0 0 1.12655,-0.26562 z" />
      <path
         id="path1-7-8"
         style="opacity:1;fill:#000000;fill-rule:evenodd;stroke-width:1.48893;stroke-linecap:round;stroke-linejoin:round;stroke-dashoffset:16.9739;paint-order:markers stroke fill"
         d="m 109.55457,134.21371 a 30,30 0 0 0 0.47181,-0.50643 30,30 0 0 0 0.94981,-1.125 30,30 0 0 0 0.89349,-1.17047 30,30 0 0 0 0.83457,-1.21336 30,30 0 0 0 0.77463,-1.25212 30,30 0 0 0 0.71159,-1.28933 30,30 0 0 0 0.64802,-1.32188 30,30 0 0 0 0.58187,-1.35289 30,30 0 0 0 0.51522,-1.37925 30,30 0 0 0 0.44648,-1.40301 30,30 0 0 0 0.37776,-1.42316 30,30 0 0 0 0.30696,-1.44023 30,30 0 0 0 0.23616,-1.45366 30,30 0 0 0 0.16433,-1.46295 30,30 0 0 0 0.0925,-1.46969 30,30 0 0 0 0.0202,-1.47226 30,30 0 0 0 -0.0522,-1.47174 30,30 0 0 0 -0.12402,-1.4671 30,30 0 0 0 -0.19586,-1.45934 30,30 0 0 0 -0.26768,-1.44797 30,30 0 0 0 -1.17667,-4.11551 30,30 0 0 0 -1.7508,-3.906223 30,30 0 0 0 -2.28875,-3.616831 30,30 0 0 0 -2.78019,-3.254588 30,30 0 0 0 -3.21479,-2.825665 30,30 0 0 0 -3.5848,-2.339392 30,30 0 0 0 -1.96267,-0.913122 29.5,29.5 0 0 0 -7.763348,26.625241 29.5,29.5 0 0 0 17.136418,20.92793 z" />
      <path
         id="path1-7"
         style="opacity:1;fill:#ffcc00;fill-rule:evenodd;stroke-width:1.23657;stroke-linecap:round;stroke-linejoin:round;stroke-dashoffset:16.9739;paint-order:markers stroke fill"
         d="m 113.97343,128.04975 a 30,30 0 0 0 0.21704,-0.39275 30,30 0 0 0 0.64802,-1.32188 30,30 0 0 0 0.58187,-1.35289 30,30 0 0 0 0.51522,-1.37925 30,30 0 0 0 0.44648,-1.40301 30,30 0 0 0 0.37776,-1.42316 30,30 0 0 0 0.30696,-1.44023 30,30 0 0 0 0.23616,-1.45366 30,30 0 0 0 0.16433,-1.46295 30,30 0 0 0 0.0925,-1.46969 30,30 0 0 0 0.0202,-1.47226 30,30 0 0 0 -0.0522,-1.47174 30,30 0 0 0 -0.12402,-1.4671 30,30 0 0 0 -0.19586,-1.45934 30,30 0 0 0 -0.26768,-1.44797 30,30 0 0 0 -1.17667,-4.11551 30,30 0 0 0 -1.7508,-3.906223 30,30 0 0 0 -2.28875,-3.616831 30,30 0 0 0 -2.78019,-3.254588 30,30 0 0 0 -3.21479,-2.825665 30,30 0 0 0 -3.5848,-2.339392 30,30 0 0 0 -2.01383,-0.936893 24.5,24.5 0 0 0 -6.588226,22.272542 24.5,24.5 0 0 0 20.431316,19.14044 z" />
      <circle
         style="opacity:1;fill:#000000;fill-rule:evenodd;stroke-width:0.126181;stroke-linecap:round;stroke-linejoin:round;stroke-dashoffset:16.9739;paint-order:markers stroke fill"
         id="path1-7-3"
         cx="86.416672"
         cy="102.00417"
         r="2.5" />
    </g>
  </g>
</svg>
